<?xml version="1.0" encoding="UTF-8" standalone="no"?>
<!DOCTYPE svg PUBLIC "-//W3C//DTD SVG 1.1//EN" "http://www.w3.org/Graphics/SVG/1.1/DTD/svg11.dtd">
<svg width="100%" height="100%" viewBox="0 0 900 750" version="1.1" xmlns="http://www.w3.org/2000/svg" xmlns:xlink="http://www.w3.org/1999/xlink" xml:space="preserve" xmlns:serif="http://www.serif.com/" style="fill-rule:evenodd;clip-rule:evenodd;stroke-linecap:round;stroke-linejoin:round;stroke-miterlimit:1.5;">
    <g id="Bg" transform="matrix(1,0,0,0.903694,-190.362,-1.34661)">
        <g transform="matrix(1,0,0,0.974007,-86.5856,-7.78363)">
            <path d="M455.746,131.556C449.501,120.679 445.674,106.389 445.674,92.638C445.674,65.043 461.089,50 480.521,50C499.953,50 516.091,65.043 516.091,92.638C516.091,106.143 512.226,120.168 506.001,130.969C506.14,135.731 506.359,140.38 506.706,142.872C507.236,146.685 508.645,151.439 511.135,154.235C517.385,161.25 529.691,163.842 541.151,168.617C548.241,171.57 546.504,170.272 557.242,175.033C577.867,184.178 581.093,185.906 583.42,239.213C583.862,249.345 584.705,242.418 587.029,253.193C589.353,263.969 585.052,297.478 592.592,308.588C611.588,336.578 612.574,367.476 627.924,394.461C633.862,404.897 640.759,406.28 645.588,413.091C648.73,417.522 648.952,423.728 659.173,434.793C660.434,436.159 655.177,435.229 653.588,434.415C651.064,433.122 644.992,422.511 642.446,425.649C637.581,431.646 643.815,446.662 644.001,457.588C644.153,466.55 646.087,470.013 640.772,471.911C638.104,472.864 632.475,471.477 628.419,468.337C624.1,464.993 618.217,459.154 614.337,451.908C610.18,444.144 608.668,438.223 608.981,420.229C609.184,408.533 609.402,405.036 603.29,395.155C589.788,373.325 579.547,380.27 570.086,343.94C568.445,337.639 565.407,326.304 563.462,321.164C561.318,315.501 559.264,309.977 555.436,298.138C548.017,275.189 543.317,282.178 543.296,254.64C543.292,249.365 537.622,307.758 535.348,322.654C526.82,378.509 543.354,376.638 546.516,403.714C551.749,448.528 548.914,508.051 547.72,518.716C546.852,526.47 543.813,542.351 541.727,552.48C538.474,568.283 532.944,583.062 532.263,597.515C531.06,623.063 535.091,623.979 537.01,643.71C538.35,657.476 536.499,685.034 533.354,703.724C531.163,716.748 521.047,749.186 520.524,758.454C519.983,768.033 519.077,782.972 522.804,788.475C525.345,792.227 530.991,798.725 533.694,802.742C536.236,806.52 535.261,813.115 532.901,815.849C525.392,824.548 523.53,835.755 514.775,836.981C508.9,837.803 504.539,832.147 502.008,827.103C498.355,819.821 498.906,802.736 497.657,791.311C495.441,771.046 500.168,762.593 500.101,751.674C499.904,719.616 497.189,713.353 492.696,686.126C488.437,660.318 495.013,637.018 499.153,613.419C500.357,606.553 497.532,588.196 494.692,573.05C489.755,546.721 482.634,453.035 481.494,453.148L481.658,211.285L480.899,188.484L481.38,149.981C481.094,149.994 480.808,150 480.521,150C480.476,150 480.431,150 480.386,150L480.866,188.484L480.107,211.285L480.271,453.148C479.131,453.035 472.01,546.721 467.073,573.05C464.232,588.196 461.408,606.553 462.612,613.419C466.752,637.018 473.328,660.318 469.069,686.126C464.576,713.353 461.861,719.616 461.664,751.674C461.597,762.593 466.324,771.046 464.108,791.311C462.858,802.736 463.41,819.821 459.757,827.103C457.226,832.147 452.865,837.803 446.99,836.981C438.235,835.755 436.373,824.548 428.864,815.849C426.504,813.115 425.529,806.52 428.071,802.742C430.774,798.725 436.42,792.227 438.961,788.475C442.688,782.972 441.782,768.033 441.241,758.454C440.718,749.186 430.602,716.748 428.411,703.724C425.266,685.034 423.415,657.476 424.755,643.71C426.674,623.979 430.705,623.063 429.502,597.515C428.821,583.062 423.291,568.283 420.038,552.48C417.952,542.351 414.913,526.47 414.045,518.716C412.851,508.051 410.016,448.528 415.249,403.714C418.411,376.638 434.945,378.509 426.417,322.654C424.143,307.758 418.473,249.365 418.469,254.64C418.448,282.178 413.748,275.189 406.329,298.138C402.501,309.977 400.447,315.501 398.303,321.164C396.358,326.304 393.32,337.639 391.679,343.94C382.218,380.27 371.977,373.325 358.475,395.155C352.363,405.036 352.581,408.533 352.784,420.229C353.096,438.223 351.585,444.144 347.428,451.908C343.548,459.154 337.665,464.993 333.346,468.337C329.29,471.477 323.661,472.864 320.993,471.911C315.678,470.013 317.612,466.55 317.764,457.588C317.95,446.662 324.184,431.646 319.319,425.649C316.773,422.511 310.701,433.122 308.177,434.415C306.588,435.229 301.331,436.159 302.592,434.793C312.813,423.728 313.035,417.522 316.177,413.091C321.006,406.28 327.903,404.897 333.84,394.461C349.191,367.476 350.177,336.578 369.173,308.588C376.713,297.478 372.412,263.969 374.736,253.193C377.06,242.418 377.903,249.345 378.345,239.213C380.672,185.906 383.898,184.178 404.523,175.033C415.261,170.272 413.524,171.57 420.614,168.617C432.074,163.842 444.38,161.25 450.63,154.235C453.12,151.439 454.529,146.685 455.059,142.872C455.392,140.483 455.607,136.11 455.746,131.556Z" style="fill:rgb(128,128,128);stroke:rgb(128,128,128);stroke-width:2.12px;"/>
        </g>
        <g transform="matrix(1,0,0,0.974007,405.544,-23.3123)">
            <path d="M455.746,131.556C449.501,120.679 445.674,106.389 445.674,92.638C445.674,65.043 461.089,50 480.521,50C499.953,50 516.091,65.043 516.091,92.638C516.091,106.143 512.226,120.168 506.001,130.969C506.14,135.731 506.359,140.38 506.706,142.872C507.236,146.685 508.645,151.439 511.135,154.235C517.385,161.25 529.691,163.842 541.151,168.617C548.241,171.57 546.504,170.272 557.242,175.033C577.867,184.178 581.093,185.906 583.42,239.213C583.862,249.345 584.705,242.418 587.029,253.193C589.353,263.969 585.052,297.478 592.592,308.588C611.588,336.578 612.574,367.476 627.924,394.461C633.862,404.897 640.759,406.28 645.588,413.091C648.73,417.522 648.952,423.728 659.173,434.793C660.434,436.159 655.177,435.229 653.588,434.415C651.064,433.122 644.992,422.511 642.446,425.649C637.581,431.646 643.815,446.662 644.001,457.588C644.153,466.55 646.087,470.013 640.772,471.911C638.104,472.864 632.475,471.477 628.419,468.337C624.1,464.993 618.217,459.154 614.337,451.908C610.18,444.144 608.668,438.223 608.981,420.229C609.184,408.533 609.402,405.036 603.29,395.155C589.788,373.325 579.547,380.27 570.086,343.94C568.445,337.639 565.407,326.304 563.462,321.164C561.318,315.501 559.264,309.977 555.436,298.138C548.017,275.189 543.317,282.178 543.296,254.64C543.292,249.365 537.622,307.758 535.348,322.654C526.82,378.509 543.354,376.638 546.516,403.714C551.749,448.528 548.914,508.051 547.72,518.716C546.852,526.47 543.813,542.351 541.727,552.48C538.474,568.283 532.944,583.062 532.263,597.515C531.06,623.063 535.091,623.979 537.01,643.71C538.35,657.476 536.499,685.034 533.354,703.724C531.163,716.748 521.047,749.186 520.524,758.454C519.983,768.033 519.077,782.972 522.804,788.475C525.345,792.227 530.991,798.725 533.694,802.742C536.236,806.52 535.261,813.115 532.901,815.849C525.392,824.548 523.53,835.755 514.775,836.981C508.9,837.803 504.539,832.147 502.008,827.103C498.355,819.821 498.906,802.736 497.657,791.311C495.441,771.046 500.168,762.593 500.101,751.674C499.904,719.616 497.189,713.353 492.696,686.126C488.437,660.318 495.013,637.018 499.153,613.419C500.357,606.553 497.532,588.196 494.692,573.05C489.755,546.721 482.634,453.035 481.494,453.148L481.658,211.285L480.899,188.484L481.38,149.981C481.094,149.994 480.808,150 480.521,150C480.476,150 480.431,150 480.386,150L480.866,188.484L480.107,211.285L480.271,453.148C479.131,453.035 472.01,546.721 467.073,573.05C464.232,588.196 461.408,606.553 462.612,613.419C466.752,637.018 473.328,660.318 469.069,686.126C464.576,713.353 461.861,719.616 461.664,751.674C461.597,762.593 466.324,771.046 464.108,791.311C462.858,802.736 463.41,819.821 459.757,827.103C457.226,832.147 452.865,837.803 446.99,836.981C438.235,835.755 436.373,824.548 428.864,815.849C426.504,813.115 425.529,806.52 428.071,802.742C430.774,798.725 436.42,792.227 438.961,788.475C442.688,782.972 441.782,768.033 441.241,758.454C440.718,749.186 430.602,716.748 428.411,703.724C425.266,685.034 423.415,657.476 424.755,643.71C426.674,623.979 430.705,623.063 429.502,597.515C428.821,583.062 423.291,568.283 420.038,552.48C417.952,542.351 414.913,526.47 414.045,518.716C412.851,508.051 410.016,448.528 415.249,403.714C418.411,376.638 434.945,378.509 426.417,322.654C424.143,307.758 418.473,249.365 418.469,254.64C418.448,282.178 413.748,275.189 406.329,298.138C402.501,309.977 400.447,315.501 398.303,321.164C396.358,326.304 393.32,337.639 391.679,343.94C382.218,380.27 371.977,373.325 358.475,395.155C352.363,405.036 352.581,408.533 352.784,420.229C353.096,438.223 351.585,444.144 347.428,451.908C343.548,459.154 337.665,464.993 333.346,468.337C329.29,471.477 323.661,472.864 320.993,471.911C315.678,470.013 317.612,466.55 317.764,457.588C317.95,446.662 324.184,431.646 319.319,425.649C316.773,422.511 310.701,433.122 308.177,434.415C306.588,435.229 301.331,436.159 302.592,434.793C312.813,423.728 313.035,417.522 316.177,413.091C321.006,406.28 327.903,404.897 333.84,394.461C349.191,367.476 350.177,336.578 369.173,308.588C376.713,297.478 372.412,263.969 374.736,253.193C377.06,242.418 377.903,249.345 378.345,239.213C380.672,185.906 383.898,184.178 404.523,175.033C415.261,170.272 413.524,171.57 420.614,168.617C432.074,163.842 444.38,161.25 450.63,154.235C453.12,151.439 454.529,146.685 455.059,142.872C455.392,140.483 455.607,136.11 455.746,131.556Z" style="fill:rgb(128,128,128);stroke:rgb(128,128,128);stroke-width:2.12px;"/>
        </g>
    </g>
    <g id="Rear-Delts" serif:id="Rear Delts" transform="matrix(1,0,0,1,-190,-25)">
        <g transform="matrix(0.957562,0,0,0.985846,84.1601,-3.84268)">
            <path d="M742.98,223.263C758.548,213.05 798.152,206.564 799.92,196.635C801.403,188.306 784.894,178.793 783.144,177.785C762.106,165.662 728.091,233.029 742.98,223.263Z" style="stroke:black;stroke-width:2.06px;"/>
        </g>
        <g transform="matrix(-0.957562,0,0,0.985846,1687.91,-3.84268)">
            <path d="M742.98,223.263C758.548,213.05 798.152,206.564 799.92,196.635C801.403,188.306 784.894,178.793 783.144,177.785C762.106,165.662 728.091,233.029 742.98,223.263Z" style="stroke:black;stroke-width:2.06px;"/>
        </g>
    </g>
    <g id="Lats" transform="matrix(1,0,0,1,-190,-25)">
        <g transform="matrix(1,0,0,1.11389,50.2089,-45.924)">
            <path d="M771.947,249.314C777.869,304.233 777.002,300.574 797.977,339.542C800.155,343.589 804.659,341.254 806.716,335.435C817.361,305.309 824.915,312.001 826.994,304.72C828.16,300.635 817.209,257.34 813.038,260.14C798.603,269.83 796.552,265.902 783.324,256.079C773.606,248.863 772.328,246.558 771.947,249.314Z" style="stroke:black;stroke-width:1.89px;"/>
        </g>
        <g transform="matrix(-1,0,0,1.11389,1721.86,-45.924)">
            <path d="M771.947,249.314C777.869,304.233 777.002,300.574 797.977,339.542C800.155,343.589 804.659,341.254 806.716,335.435C817.361,305.309 824.915,312.001 826.994,304.72C828.16,300.635 817.209,257.34 813.038,260.14C798.603,269.83 796.552,265.902 783.324,256.079C773.606,248.863 772.328,246.558 771.947,249.314Z" style="stroke:black;stroke-width:1.89px;"/>
        </g>
    </g>
    <g id="Spinal-Erectors" serif:id="Spinal Erectors" transform="matrix(1,0,0,1,-190,-25)">
        <g transform="matrix(-1,0,0,1,1722.11,-8.87386)">
            <path d="M830.62,309.407C827.525,310.229 821.375,313.551 814.711,332.352C808.854,348.878 802.013,346.435 798.332,348.891C794.651,351.346 800.735,356.88 805.882,358.977C811.03,361.075 818.051,367.515 822.567,380.835C827.083,394.156 830.955,382.905 831.594,359.229C832.276,334.017 836.014,307.974 830.62,309.407Z" style="stroke:black;stroke-width:2px;"/>
        </g>
        <g transform="matrix(1,0,0,1,49.9621,-8.87386)">
            <path d="M830.62,309.407C827.525,310.229 821.375,313.551 814.711,332.352C808.854,348.878 802.013,346.435 798.332,348.891C794.651,351.346 800.735,356.88 805.882,358.977C811.03,361.075 818.051,367.515 822.567,380.835C827.083,394.156 830.955,382.905 831.594,359.229C832.276,334.017 836.014,307.974 830.62,309.407Z" style="stroke:black;stroke-width:2px;"/>
        </g>
    </g>
    <g id="Terres-Major-Minor" serif:id="Terres Major/Minor" transform="matrix(1,0,0,1,-190,-25)">
        <g transform="matrix(1,0,0,1,50.2089,-7.01659)">
            <path d="M785.07,241.603C791.689,247.685 801.348,256.884 811.466,247.383C812.112,246.777 809.823,241.796 807.956,240.787C805.278,239.34 805.284,239.174 802.581,237.774C783.23,227.744 779.557,213.885 774.608,215.944C769.435,218.096 764.137,220.405 762.652,221.839C760.995,223.439 768.997,226.831 785.07,241.603Z" style="stroke:black;stroke-width:2px;"/>
        </g>
        <g transform="matrix(-1,0,0,1,1721.86,-7.01659)">
            <path d="M785.07,241.603C791.689,247.685 801.348,256.884 811.466,247.383C812.112,246.777 809.823,241.796 807.956,240.787C805.278,239.34 805.284,239.174 802.581,237.774C783.23,227.744 779.557,213.885 774.608,215.944C769.435,218.096 764.137,220.405 762.652,221.839C760.995,223.439 768.997,226.831 785.07,241.603Z" style="stroke:black;stroke-width:2px;"/>
        </g>
        <g transform="matrix(1,0,0,1,50.2089,-7.01659)">
            <path d="M782.256,213.483C785.596,216.502 788.381,222.373 807.185,236.019C810.015,238.073 802.057,229.788 799.918,220.283C798.43,213.677 798.491,211.116 799.544,206.725C793.781,208.978 788.019,211.23 782.256,213.483Z" style="stroke:black;stroke-width:2px;"/>
        </g>
        <g transform="matrix(-1,0,0,1,1721.86,-7.01659)">
            <path d="M782.256,213.483C785.596,216.502 788.381,222.373 807.185,236.019C810.015,238.073 802.057,229.788 799.918,220.283C798.43,213.677 798.491,211.116 799.544,206.725C793.781,208.978 788.019,211.23 782.256,213.483Z" style="stroke:black;stroke-width:2px;"/>
        </g>
    </g>
    <g id="Triceps" transform="matrix(1,0,0,1,-190,-25)">
        <g transform="matrix(1,0,0,1.20573,50.2089,-53.279)">
            <path d="M743.067,228.753C742.101,229.324 735.573,233.185 732.338,237.787C725.497,247.524 729.22,275.096 732.091,272.004C734.207,269.727 730.123,247.672 749.72,246.165C754.738,245.779 753.352,251.044 753.221,251.54C751.956,256.346 749.08,260.766 748.591,265.711C747.936,272.329 746.493,280.253 746.806,283.153C746.997,284.927 750.169,282.41 750.866,281.125C751.828,279.354 751.494,280.11 760.832,258.846C761.466,257.4 766.112,249.392 767.252,241.668C767.826,237.783 768.873,232.963 767.276,231.727C763.953,229.157 758.456,223.739 755.284,224.373C751.06,225.218 744.219,228.072 743.067,228.753Z" style="stroke:black;stroke-width:1.81px;"/>
        </g>
        <g transform="matrix(-1,0,0,1.20573,1721.86,-53.279)">
            <path d="M743.067,228.753C742.101,229.324 735.573,233.185 732.338,237.787C725.497,247.524 729.22,275.096 732.091,272.004C734.207,269.727 730.123,247.672 749.72,246.165C754.738,245.779 753.352,251.044 753.221,251.54C751.956,256.346 749.08,260.766 748.591,265.711C747.936,272.329 746.493,280.253 746.806,283.153C746.997,284.927 750.169,282.41 750.866,281.125C751.828,279.354 751.494,280.11 760.832,258.846C761.466,257.4 766.112,249.392 767.252,241.668C767.826,237.783 768.873,232.963 767.276,231.727C763.953,229.157 758.456,223.739 755.284,224.373C751.06,225.218 744.219,228.072 743.067,228.753Z" style="stroke:black;stroke-width:1.81px;"/>
        </g>
    </g>
    <g id="Glutes" transform="matrix(1,0,0,1,-190,-25)">
        <g transform="matrix(1,0,0,1,50.2089,-7.01659)">
            <path d="M798.056,358.976C814.304,370.386 812.803,371.45 816.807,381.717C820.316,390.715 836.37,393.918 833.243,414.96C830.779,431.541 827.499,430.475 812.061,437.061C799.807,442.288 798.447,445.804 788.002,437.395C783.503,433.773 798.751,391.811 777.167,399.821C770.459,402.31 767.688,403.162 767.279,396.147C765.914,372.765 780.801,346.86 798.056,358.976Z" style="stroke:black;stroke-width:2px;"/>
        </g>
        <g transform="matrix(-1,0,0,1,1721.86,-7.01659)">
            <path d="M798.056,358.976C814.304,370.386 812.803,371.45 816.807,381.717C820.316,390.715 836.37,393.918 833.243,414.96C830.779,431.541 827.499,430.475 812.061,437.061C799.807,442.288 798.447,445.804 788.002,437.395C783.503,433.773 798.751,391.811 777.167,399.821C770.459,402.31 767.688,403.162 767.279,396.147C765.914,372.765 780.801,346.86 798.056,358.976Z" style="stroke:black;stroke-width:2px;"/>
        </g>
    </g>
    <g id="Hamstrings" transform="matrix(1,0,0,1,-190,-25)">
        <g transform="matrix(1,0,0,1,50.2089,-7.01659)">
            <path d="M775.14,457.995C769.722,479.123 783.369,490.961 786.93,540.12C786.991,540.974 787.021,541.994 787.637,542.589C788.857,543.766 788.26,541.783 800.605,525.824C802.113,528.075 802.468,530.916 803.577,533.387C807.141,541.331 815.91,539.045 815.91,539.045C815.91,539.045 815.609,534.548 814.694,526.802C813.354,515.45 813.105,515.231 818.109,504.895C825.634,489.35 824.664,468.346 824.272,454.393C824.1,448.265 821.96,440.019 821.96,440.019C821.96,440.019 820.001,438.102 813.236,442.315C796.368,452.82 786.103,442.008 783.667,440.823C781.226,443.313 778.169,449.241 775.14,457.995Z" style="stroke:black;stroke-width:2px;"/>
        </g>
        <g transform="matrix(-1,0,0,1,1721.86,-7.01659)">
            <path d="M775.14,457.995C769.722,479.123 783.369,490.961 786.93,540.12C786.991,540.974 787.021,541.994 787.637,542.589C788.857,543.766 788.26,541.783 800.605,525.824C802.113,528.075 802.468,530.916 803.577,533.387C807.141,541.331 815.91,539.045 815.91,539.045C815.91,539.045 815.609,534.548 814.694,526.802C813.354,515.45 813.105,515.231 818.109,504.895C825.634,489.35 824.664,468.346 824.272,454.393C824.1,448.265 821.96,440.019 821.96,440.019C821.96,440.019 820.001,438.102 813.236,442.315C796.368,452.82 786.103,442.008 783.667,440.823C781.226,443.313 778.169,449.241 775.14,457.995Z" style="stroke:black;stroke-width:2px;"/>
        </g>
    </g>
    <g id="Chest" transform="matrix(1,0,0,1,-190,-25)">
        <g transform="matrix(1,0,0,1,-78.0634,-0.474032)">
            <path d="M396.982,217.872C398.758,214.801 415.702,185.494 422.412,181.538C429.921,177.11 462.721,179.826 465.663,201.311C466.127,204.7 470.609,237.424 462.212,243.922C459.344,246.141 441.993,259.567 416.884,243.321C409.162,238.325 394.998,220.063 396.982,217.872Z" style="stroke:black;stroke-width:2px;"/>
        </g>
        <g transform="matrix(-1,0,0,1,865.934,-0.469007)">
            <path d="M396.982,217.872C398.758,214.801 415.702,185.494 422.412,181.538C429.921,177.11 462.721,179.826 465.663,201.311C466.127,204.7 470.609,237.424 462.212,243.922C459.344,246.141 441.993,259.567 416.884,243.321C409.162,238.325 394.998,220.063 396.982,217.872Z" style="stroke:black;stroke-width:2px;"/>
        </g>
    </g>
    <g id="Front-Delt" serif:id="Front Delt" transform="matrix(1,0,0,1,-194.457,-24.6113)">
        <g transform="matrix(1,0,0,1,-76.9408,-1.61018)">
            <path d="M383.132,219.216C383.372,226.101 384.194,230.187 390.276,222.441C393.03,218.934 399.777,202.684 414.737,184.528C421.46,176.37 432.2,176.994 425.8,174.59C414.004,170.158 405.113,175.563 399.479,179.783C381.632,193.149 382.852,211.214 383.132,219.216Z" style="stroke:black;stroke-width:2px;"/>
        </g>
        <g transform="matrix(-1,0,0,1,873.725,-1.60515)">
            <path d="M383.132,219.216C383.372,226.101 384.194,230.187 390.276,222.441C393.03,218.934 399.777,202.684 414.737,184.528C421.46,176.37 432.2,176.994 425.8,174.59C414.004,170.158 405.113,175.563 399.479,179.783C381.632,193.149 382.852,211.214 383.132,219.216Z" style="stroke:black;stroke-width:2px;"/>
        </g>
    </g>
    <g id="Lateral-Delt" serif:id="Lateral Delt" transform="matrix(1,0,0,1,-194.457,-24.6113)">
        <g transform="matrix(0.998977,0.0452147,-0.0452147,0.998977,-71.6982,-23.0644)">
            <path d="M409.146,173.547C402.048,170.585 385.357,177.575 378.512,194.651C374.347,205.041 377.935,230.445 379.125,234.289C380.227,237.848 382.607,230.742 382.725,226.72C383.001,217.3 376.718,188.302 409.146,173.547Z" style="stroke:black;stroke-width:2px;"/>
        </g>
        <g transform="matrix(-0.998977,0.0452147,0.0452147,0.998977,868.482,-23.0594)">
            <path d="M409.146,173.547C402.048,170.585 385.357,177.575 378.512,194.651C374.347,205.041 377.935,230.445 379.125,234.289C380.227,237.848 382.607,230.742 382.725,226.72C383.001,217.3 376.718,188.302 409.146,173.547Z" style="stroke:black;stroke-width:2px;"/>
        </g>
        <g transform="matrix(1,0,0,1,54.6654,-7.40531)">
            <path d="M738.706,176.002C732.534,190.44 731.347,209.799 731.163,212.799C730.86,217.743 729.819,229.556 731.163,227.661C735.568,221.449 745.605,189.105 761.644,178.76C771.429,172.449 773.98,172.598 771.897,170.128C757.604,153.173 740.786,171.137 738.706,176.002Z" style="stroke:black;stroke-width:2px;"/>
        </g>
        <g transform="matrix(-1,0,0,1,1726.32,-7.40531)">
            <path d="M738.706,176.002C732.534,190.44 731.347,209.799 731.163,212.799C730.86,217.743 729.819,229.556 731.163,227.661C735.568,221.449 745.605,189.105 761.644,178.76C771.429,172.449 773.98,172.598 771.897,170.128C757.604,153.173 740.786,171.137 738.706,176.002Z" style="stroke:black;stroke-width:2px;"/>
        </g>
    </g>
    <g id="Traps" transform="matrix(1,0,0,1,-190,-25)">
        <g transform="matrix(1.40632,0,0,1,-243.189,-1.85248)">
            <path d="M411.888,167.657C408.478,168.254 426.924,161.736 430.141,157.356C432.33,154.375 432.259,161.244 431.915,165.919C431.57,170.613 432.234,175.802 428.455,175.504C423.229,175.091 421.598,165.958 411.888,167.657Z" style="stroke:black;stroke-width:1.64px;"/>
        </g>
        <g transform="matrix(-1.40632,0,0,1,1031.06,-1.84745)">
            <path d="M411.888,167.657C408.478,168.254 426.924,161.736 430.141,157.356C432.33,154.375 432.259,161.244 431.915,165.919C431.57,170.613 432.234,175.802 428.455,175.504C423.229,175.091 421.598,165.958 411.888,167.657Z" style="stroke:black;stroke-width:1.64px;"/>
        </g>
        <g transform="matrix(1,0,0,1,50.2089,-7.01659)">
            <path d="M832.523,144.36C829.272,184.124 811.855,168.193 825.818,203.156C830.043,213.736 832.519,220.763 832.526,249.933C832.531,276.216 832.885,286.83 832.619,290.604C817.636,242.921 812.002,233.664 809.763,229C796.779,201.955 811.214,198.508 800.287,182.209C796.303,176.266 790.506,173.639 780.487,171.121C779.232,170.806 777.13,165.232 768.627,160.134C805.122,148.784 805.575,149.991 813.483,144.582C823.907,137.452 826.401,120.721 829.837,117C835.279,111.108 832.806,143.106 832.523,144.36Z" style="stroke:black;stroke-width:2px;"/>
        </g>
        <g transform="matrix(-1,0,0,1,1721.86,-7.01659)">
            <path d="M832.523,144.36C829.272,184.124 811.855,168.193 825.818,203.156C830.043,213.736 832.519,220.763 832.526,249.933C832.531,276.216 832.885,286.83 832.619,290.604C817.636,242.921 812.002,233.664 809.763,229C796.779,201.955 811.214,198.508 800.287,182.209C796.303,176.266 790.506,173.639 780.487,171.121C779.232,170.806 777.13,165.232 768.627,160.134C805.122,148.784 805.575,149.991 813.483,144.582C823.907,137.452 826.401,120.721 829.837,117C835.279,111.108 832.806,143.106 832.523,144.36Z" style="stroke:black;stroke-width:2px;"/>
        </g>
    </g>
    <g id="Neck" transform="matrix(1,0,0,1,-190,-25)">
        <g transform="matrix(1.09901,0,0,1,-119.588,-0.951598)">
            <path d="M444.722,138.517C442.642,140.3 444.325,175.631 454.943,183.188C455.304,183.445 462.843,188.809 460.447,183.793C455.673,173.795 451.09,171.976 451.538,150.978C451.551,150.374 451.615,147.023 450.933,144.732C450.331,142.71 447.068,141.575 444.722,138.517Z" style="stroke:black;stroke-width:1.9px;"/>
        </g>
        <g transform="matrix(-1.09901,0,0,1,907.458,-0.946574)">
            <path d="M444.722,138.517C442.642,140.3 444.325,175.631 454.943,183.188C455.304,183.445 462.843,188.809 460.447,183.793C455.673,173.795 451.09,171.976 451.538,150.978C451.551,150.374 451.615,147.023 450.933,144.732C450.331,142.71 447.068,141.575 444.722,138.517Z" style="stroke:black;stroke-width:1.9px;"/>
        </g>
    </g>
    <g id="Biceps" transform="matrix(1,0,0,1,-190,-25)">
        <g transform="matrix(1,0,0,1,-74.5484,-2.43503)">
            <path d="M370.872,312.276L391.182,275.815C410.162,242.325 389.535,225.916 388.772,224.885C386.3,226.623 387.914,228.957 377.879,232.541C368.167,236.011 368.504,264.93 368.538,267.852C368.582,271.599 372.758,291.899 369.753,306.154C369.421,307.725 368.459,309.168 368.385,310.772C368.293,312.803 370.872,312.276 370.872,312.276Z" style="stroke:black;stroke-width:2px;"/>
        </g>
        <g transform="matrix(-1,0,0,1,862.419,-2.43)">
            <path d="M370.872,312.276L391.182,275.815C410.162,242.325 389.535,225.916 388.772,224.885C386.3,226.623 387.914,228.957 377.879,232.541C368.167,236.011 368.504,264.93 368.538,267.852C368.582,271.599 372.758,291.899 369.753,306.154C369.421,307.725 368.459,309.168 368.385,310.772C368.293,312.803 370.872,312.276 370.872,312.276Z" style="stroke:black;stroke-width:2px;"/>
        </g>
    </g>
    <g id="Forearm-Extensors" serif:id="Forearm Extensors" transform="matrix(1,0,0,1,-190,-25)">
        <g transform="matrix(1,0,0,1,50.2089,-7.01659)">
            <path d="M735.101,295.583C736.19,306.845 732.135,318.391 728.093,325.266C723.852,332.477 715.464,338.926 708.562,347.101C703.952,352.56 698.588,357.505 694.228,363.967C691.691,367.727 690.275,366.344 690.259,363.272C690.253,362.161 694.697,351.508 697.874,347.4C706.53,336.205 713.896,320.213 718.377,313.606C723.113,306.622 729.231,302.854 730.617,294.372C730.845,292.974 731.265,290.51 731.747,289.873C732.055,289.467 734.001,289.364 734.381,290.053C734.78,290.778 735,294.534 735.101,295.583Z" style="stroke:black;stroke-width:2px;"/>
        </g>
        <g transform="matrix(-1,0,0,1,1721.86,-7.01659)">
            <path d="M735.101,295.583C736.19,306.845 732.135,318.391 728.093,325.266C723.852,332.477 715.464,338.926 708.562,347.101C703.952,352.56 698.588,357.505 694.228,363.967C691.691,367.727 690.275,366.344 690.259,363.272C690.253,362.161 694.697,351.508 697.874,347.4C706.53,336.205 713.896,320.213 718.377,313.606C723.113,306.622 729.231,302.854 730.617,294.372C730.845,292.974 731.265,290.51 731.747,289.873C732.055,289.467 734.001,289.364 734.381,290.053C734.78,290.778 735,294.534 735.101,295.583Z" style="stroke:black;stroke-width:2px;"/>
        </g>
    </g>
    <g id="Brachialis" transform="matrix(1,0,0,1,-190,-25)">
        <g transform="matrix(1,0,0,1,-74.5484,-2.43503)">
            <path d="M364.333,236.193C362.107,235.372 358.396,246.7 359.246,265.619C359.617,273.884 360.886,275.544 361.993,287.006C363.482,302.421 363.187,307.819 364.038,305.292C369.845,288.046 367.297,293.625 364.305,270.979C362.591,258.01 364.044,246.085 368.065,240.322C368.165,240.177 367.902,237.509 364.333,236.193Z" style="stroke:black;stroke-width:2px;"/>
        </g>
        <g transform="matrix(-1,0,0,1,862.419,-2.43)">
            <path d="M364.333,236.193C362.107,235.372 358.396,246.7 359.246,265.619C359.617,273.884 360.886,275.544 361.993,287.006C363.482,302.421 363.187,307.819 364.038,305.292C369.845,288.046 367.297,293.625 364.305,270.979C362.591,258.01 364.044,246.085 368.065,240.322C368.165,240.177 367.902,237.509 364.333,236.193Z" style="stroke:black;stroke-width:2px;"/>
        </g>
    </g>
    <g id="Brachioradialis" transform="matrix(1,0,0,1,-190,-25)">
        <g transform="matrix(1,0,0,1,-74.5484,-2.43503)">
            <path d="M355.154,289.058C350.972,294.724 343.316,307.384 341.892,313.246C338.993,325.175 332.991,350.971 330.971,356.871C328.393,364.403 323.179,372.782 322.345,375.732C321.829,377.561 326.91,373.922 328.284,372.039C329.282,370.671 330.698,365.855 339.965,348.549C342.543,343.734 355.681,333.373 357.18,327.485C358.942,320.565 360.24,294.095 357.99,287.134C357.638,286.047 355.154,289.058 355.154,289.058Z" style="stroke:black;stroke-width:2px;"/>
        </g>
        <g transform="matrix(-1,0,0,1,862.419,-2.43)">
            <path d="M355.154,289.058C350.972,294.724 343.316,307.384 341.892,313.246C338.993,325.175 332.991,350.971 330.971,356.871C328.393,364.403 323.179,372.782 322.345,375.732C321.829,377.561 326.91,373.922 328.284,372.039C329.282,370.671 330.698,365.855 339.965,348.549C342.543,343.734 355.681,333.373 357.18,327.485C358.942,320.565 360.24,294.095 357.99,287.134C357.638,286.047 355.154,289.058 355.154,289.058Z" style="stroke:black;stroke-width:2px;"/>
        </g>
        <g transform="matrix(1,0,0,1,50.2089,-7.01659)">
            <path d="M725.434,294.924C721.474,301.783 719.359,301.559 712.661,313.303C705.963,325.047 699.493,343.428 699.649,333.703C699.805,323.977 708.502,305.761 712.857,297.851C717.447,289.517 722.126,278.31 724.765,276.961C726.14,276.259 725.996,280.019 726.07,282.744C726.204,287.721 726.77,292.608 725.434,294.924Z" style="stroke:black;stroke-width:2px;"/>
        </g>
        <g transform="matrix(-1,0,0,1,1721.86,-7.01659)">
            <path d="M725.434,294.924C721.474,301.783 719.359,301.559 712.661,313.303C705.963,325.047 699.493,343.428 699.649,333.703C699.805,323.977 708.502,305.761 712.857,297.851C717.447,289.517 722.126,278.31 724.765,276.961C726.14,276.259 725.996,280.019 726.07,282.744C726.204,287.721 726.77,292.608 725.434,294.924Z" style="stroke:black;stroke-width:2px;"/>
        </g>
    </g>
    <g id="Forearm-Flexors" serif:id="Forearm Flexors" transform="matrix(1,0,0,1,-190,-25)">
        <g transform="matrix(1,0,0,1,-74.5484,-2.43503)">
            <path d="M375.686,312.642C380.123,308.748 373.995,330.536 367.555,338.935C365.271,341.913 351.794,349.822 345.859,356.458C342.629,360.071 341.788,361.879 338.534,365.658C337.119,367.302 332.325,372.572 332.882,371.222C335.282,365.412 335.79,365.474 338.19,359.664C343.109,347.758 359.85,337.798 362.046,326.1C364.124,315.025 363.565,313.594 365.227,314.337C366.826,315.051 369.02,318.49 375.686,312.642Z" style="stroke:black;stroke-width:2px;"/>
        </g>
        <g transform="matrix(-1,0,0,1,862.419,-2.43)">
            <path d="M375.686,312.642C380.123,308.748 373.995,330.536 367.555,338.935C365.271,341.913 351.794,349.822 345.859,356.458C342.629,360.071 341.788,361.879 338.534,365.658C337.119,367.302 332.325,372.572 332.882,371.222C335.282,365.412 335.79,365.474 338.19,359.664C343.109,347.758 359.85,337.798 362.046,326.1C364.124,315.025 363.565,313.594 365.227,314.337C366.826,315.051 369.02,318.49 375.686,312.642Z" style="stroke:black;stroke-width:2px;"/>
        </g>
        <g transform="matrix(1,0,0,1,50.2089,-7.01659)">
            <path d="M719.003,346.332C724.332,343.033 731.31,338.276 738.455,330.137C745.34,322.294 746.583,310.795 747.406,306.028C747.737,304.113 748.131,301.679 747.964,300.788C747.754,299.665 743.887,300.521 743.54,301.525C742.52,304.474 740.807,307.704 738.25,313.47C735.693,319.236 733.054,327.136 727.305,333.947C725.382,336.225 713.674,349.632 719.003,346.332Z" style="stroke:black;stroke-width:2px;"/>
        </g>
        <g transform="matrix(-1,0,0,1,1721.86,-7.01659)">
            <path d="M719.003,346.332C724.332,343.033 731.31,338.276 738.455,330.137C745.34,322.294 746.583,310.795 747.406,306.028C747.737,304.113 748.131,301.679 747.964,300.788C747.754,299.665 743.887,300.521 743.54,301.525C742.52,304.474 740.807,307.704 738.25,313.47C735.693,319.236 733.054,327.136 727.305,333.947C725.382,336.225 713.674,349.632 719.003,346.332Z" style="stroke:black;stroke-width:2px;"/>
        </g>
    </g>
    <g id="Serratus-Anterior" serif:id="Serratus Anterior" transform="matrix(1,0,0,1,-190,-25)">
        <g transform="matrix(1,0,0,1,-74.5484,-2.43503)">
            <path d="M403.029,242.552C408.043,252.957 406.488,260.211 408.441,272.136C410.395,284.062 414.138,288.408 415.444,290.513C419.725,297.414 422.059,297.768 422.059,297.768C422.059,297.768 415.999,287.272 418.496,286.229C420.808,285.265 422.813,286.125 422.813,286.125C422.813,286.125 412.851,275.023 415.703,273.017C417.394,271.827 421.24,273.473 421.24,273.473C421.24,273.473 412.126,261.666 416.18,260.247C417.733,259.703 421.917,261.898 421.917,261.898C421.917,261.898 419.827,253.036 415.399,250.842C411.362,248.84 401.413,239.201 403.029,242.552Z" style="stroke:black;stroke-width:2px;"/>
        </g>
        <g transform="matrix(-1,0,0,1,862.419,-2.43)">
            <path d="M403.029,242.552C408.043,252.957 406.488,260.211 408.441,272.136C410.395,284.062 414.138,288.408 415.444,290.513C419.725,297.414 422.059,297.768 422.059,297.768C422.059,297.768 415.999,287.272 418.496,286.229C420.808,285.265 422.813,286.125 422.813,286.125C422.813,286.125 412.851,275.023 415.703,273.017C417.394,271.827 421.24,273.473 421.24,273.473C421.24,273.473 412.126,261.666 416.18,260.247C417.733,259.703 421.917,261.898 421.917,261.898C421.917,261.898 419.827,253.036 415.399,250.842C411.362,248.84 401.413,239.201 403.029,242.552Z" style="stroke:black;stroke-width:2px;"/>
        </g>
    </g>
    <g id="Rectus-Abdominis" serif:id="Rectus Abdominis" transform="matrix(1,0,0,1,-190,-25)">
        <g transform="matrix(1,0,0,1,-74.5484,-2.43503)">
            <path d="M464.078,262.086C464.386,268.753 463.402,271.638 464.783,277.934C466.015,283.552 464.729,288.093 462.078,287.882C456.994,287.477 453.186,291.578 447.602,297.174C440.879,303.911 433.653,299.076 434.119,291.385C434.44,286.098 435.124,277.247 440.335,271.529C445.546,265.812 452.967,261.674 456.343,259.598C459.719,257.522 463.948,259.284 464.078,262.086Z" style="stroke:black;stroke-width:2px;"/>
        </g>
        <g transform="matrix(1,0,0,0.948702,-74.5484,14.4678)">
            <path d="M433.771,310.078C430.24,327.046 434.279,331.451 451.345,328.779C453.11,328.503 468.534,327.38 465.265,312.796C461.862,297.615 467.159,291.772 461.65,291.196C458.075,290.821 451.722,300.023 446.837,302.246C441.336,304.748 435.439,302.06 433.771,310.078Z" style="stroke:black;stroke-width:2.05px;"/>
        </g>
        <g transform="matrix(1,0,0,1,-74.5484,-2.43503)">
            <path d="M433.451,335.562C433.433,344.183 432.606,344.195 434.038,352.071C434.804,356.284 438.871,360.976 443.986,358.073C445.553,357.183 461.511,348.126 463.219,346.353C465.788,343.686 467.075,328.759 461.762,330.264C461.232,330.415 453.478,335.047 440.285,333.456C435.743,332.909 433.46,331.012 433.451,335.562Z" style="stroke:black;stroke-width:2px;"/>
        </g>
        <g transform="matrix(1,0,0,1,-74.5484,-2.43503)">
            <path d="M438.549,367.141C436.791,371.309 441.954,381.198 444.269,384.032C447.057,387.444 450.988,389.981 453.158,393.816C456.451,399.634 457.068,404.804 460.361,410.622C461.506,412.647 464.479,414.295 464.591,408.153C464.806,396.386 463.086,384.134 462.795,382.063C460.893,368.519 466.623,353.221 464.461,351.768C464.416,351.738 458.208,356.477 451.458,360.085C445.803,363.107 439.522,364.834 438.549,367.141Z" style="stroke:black;stroke-width:2px;"/>
        </g>
        <g transform="matrix(-1,0,0,1,862.419,-2.43)">
            <path d="M464.078,262.086C464.386,268.753 463.402,271.638 464.783,277.934C466.015,283.552 464.729,288.093 462.078,287.882C456.994,287.477 453.186,291.578 447.602,297.174C440.879,303.911 433.653,299.076 434.119,291.385C434.44,286.098 435.124,277.247 440.335,271.529C445.546,265.812 452.967,261.674 456.343,259.598C459.719,257.522 463.948,259.284 464.078,262.086Z" style="stroke:black;stroke-width:2px;"/>
        </g>
        <g transform="matrix(-1,0,0,0.948702,862.419,14.4728)">
            <path d="M433.771,310.078C430.24,327.046 434.279,331.451 451.345,328.779C453.11,328.503 468.534,327.38 465.265,312.796C461.862,297.615 467.159,291.772 461.65,291.196C458.075,290.821 451.722,300.023 446.837,302.246C441.336,304.748 435.439,302.06 433.771,310.078Z" style="stroke:black;stroke-width:2.05px;"/>
        </g>
        <g transform="matrix(-1,0,0,1,862.419,-2.43)">
            <path d="M433.451,335.562C433.433,344.183 432.606,344.195 434.038,352.071C434.804,356.284 438.871,360.976 443.986,358.073C445.553,357.183 461.511,348.126 463.219,346.353C465.788,343.686 467.075,328.759 461.762,330.264C461.232,330.415 453.478,335.047 440.285,333.456C435.743,332.909 433.46,331.012 433.451,335.562Z" style="stroke:black;stroke-width:2px;"/>
        </g>
        <g transform="matrix(-1,0,0,1,862.419,-2.43)">
            <path d="M438.549,367.141C436.791,371.309 441.954,381.198 444.269,384.032C447.057,387.444 450.988,389.981 453.158,393.816C456.451,399.634 457.068,404.804 460.361,410.622C461.506,412.647 464.479,414.295 464.591,408.153C464.806,396.386 463.086,384.134 462.795,382.063C460.893,368.519 466.623,353.221 464.461,351.768C464.416,351.738 458.208,356.477 451.458,360.085C445.803,363.107 439.522,364.834 438.549,367.141Z" style="stroke:black;stroke-width:2px;"/>
        </g>
    </g>
    <g id="obliques" transform="matrix(1,0,0,1,-190,-25)">
        <g transform="matrix(1,0,0,1,-74.7459,-0.611524)">
            <path d="M413.598,305.317C415.771,340.477 406.718,348.986 404.509,360.171C403.386,365.862 407.13,364.297 412.415,366.392C415.115,367.461 427.236,382.295 428.802,376.127C431.543,365.333 427.932,362.143 427.126,356.295C425.002,340.896 430.28,333.406 429.811,326.208C429.573,322.555 427.482,316.922 425.503,308.904C424.103,303.228 416.374,302.189 412.623,291.803C411.923,289.863 413.199,298.851 413.598,305.317Z" style="stroke:black;stroke-width:2px;"/>
        </g>
        <g transform="matrix(-1,0,0,1,862.617,-0.606499)">
            <path d="M413.598,305.317C415.771,340.477 406.718,348.986 404.509,360.171C403.386,365.862 407.13,364.297 412.415,366.392C415.115,367.461 427.236,382.295 428.802,376.127C431.543,365.333 427.932,362.143 427.126,356.295C425.002,340.896 430.28,333.406 429.811,326.208C429.573,322.555 427.482,316.922 425.503,308.904C424.103,303.228 416.374,302.189 412.623,291.803C411.923,289.863 413.199,298.851 413.598,305.317Z" style="stroke:black;stroke-width:2px;"/>
        </g>
    </g>
    <g id="Quads" transform="matrix(1,0,0,1.05185,-190,-53.1021)">
        <g transform="matrix(1,0,0,1.08279,-74.5484,-47.201)">
            <path d="M410.934,406.346C393.709,459.29 406.114,496.735 408.613,503.427C410.749,509.15 417.472,534.146 425.045,533.213C426.74,533.004 428.419,531.195 428.357,528.918C428.266,525.54 424.35,511.23 428.463,516.945C429.746,518.729 430.302,522.131 432.5,522.158C435.383,522.193 436.617,517.044 439.5,517.079C439.604,523.016 438.133,527.521 437.913,530.932C437.495,537.388 439.193,541.577 442,542C450.964,543.35 463.918,504.512 450,475.519C447.618,470.557 445.064,470.172 436.446,460.212C409.725,429.326 414.987,408.028 413.143,401.636L410.934,406.346Z" style="stroke:black;stroke-width:1.87px;"/>
        </g>
        <g transform="matrix(-1,0,0,1.08279,862.419,-47.1959)">
            <path d="M410.934,406.346C393.709,459.29 406.114,496.735 408.613,503.427C410.749,509.15 417.472,534.146 425.045,533.213C426.74,533.004 428.419,531.195 428.357,528.918C428.266,525.54 424.35,511.23 428.463,516.945C429.746,518.729 430.302,522.131 432.5,522.158C435.383,522.193 436.617,517.044 439.5,517.079C439.604,523.016 438.133,527.521 437.913,530.932C437.495,537.388 439.193,541.577 442,542C450.964,543.35 463.918,504.512 450,475.519C447.618,470.557 445.064,470.172 436.446,460.212C409.725,429.326 414.987,408.028 413.143,401.636L410.934,406.346Z" style="stroke:black;stroke-width:1.87px;"/>
        </g>
    </g>
    <g id="Tibialis-Anterior" serif:id="Tibialis Anterior" transform="matrix(1,0,0,1,-190,-25)">
        <g transform="matrix(1,0,0,1,-74.5484,-2.43503)">
            <path d="M427.391,563.764C434.864,577.071 433.825,593.383 435.023,607.943C436.222,622.504 434.712,660.338 439.212,678.07C445.701,703.637 450.894,700.836 449.65,705.988C448.97,708.805 445.709,701.355 441.583,691.51C435.877,677.895 427.786,634.322 426.261,612.653C424.888,593.132 424.188,599.154 420.189,582.099C417.89,572.293 422.137,554.409 427.391,563.764Z" style="stroke:black;stroke-width:2px;"/>
        </g>
        <g transform="matrix(-1,0,0,1,862.419,-2.43)">
            <path d="M427.391,563.764C434.864,577.071 433.825,593.383 435.023,607.943C436.222,622.504 434.712,660.338 439.212,678.07C445.701,703.637 450.894,700.836 449.65,705.988C448.97,708.805 445.709,701.355 441.583,691.51C435.877,677.895 427.786,634.322 426.261,612.653C424.888,593.132 424.188,599.154 420.189,582.099C417.89,572.293 422.137,554.409 427.391,563.764Z" style="stroke:black;stroke-width:2px;"/>
        </g>
    </g>
    <g id="Adductors" transform="matrix(1,0,0,1,-190,-25)">
        <g transform="matrix(1,0,0,1,-74.5484,-2.43503)">
            <path d="M420,382.169C418.82,377.521 453.713,407.644 459.939,421.387C465.834,434.4 458.79,465.18 457.355,464.626C457.35,464.624 438.695,441.469 434.066,423.895C432.579,418.248 431.865,412.389 430,406.856C427.164,398.443 422.185,390.774 420,382.169Z" style="stroke:black;stroke-width:2px;"/>
        </g>
        <g transform="matrix(-1,0,0,1,862.419,-2.43)">
            <path d="M420,382.169C418.82,377.521 455.52,408.919 459.019,421.705C463.404,437.732 458.79,465.18 457.355,464.626C457.35,464.624 438.695,441.469 434.066,423.895C432.579,418.248 431.865,412.389 430,406.856C427.164,398.443 422.185,390.774 420,382.169Z" style="stroke:black;stroke-width:2px;"/>
        </g>
    </g>
    <g id="Calves" transform="matrix(1,0,0,1,-190,-25)">
        <g transform="matrix(-1,0,0,1,862.419,-2.43)">
            <path d="M451.516,569.519C455.165,566.839 459.671,590.689 458.471,598.668C457.575,604.634 455.42,611.589 450.994,617.36C444.321,626.061 444.402,639.64 442.869,631.856C440.795,621.327 442.677,595.855 443.927,588.572C445.54,579.177 446.463,573.231 451.516,569.519Z" style="stroke:black;stroke-width:2px;"/>
        </g>
        <g transform="matrix(1,0,0,1,-74.5484,-2.43503)">
            <path d="M451.516,569.519C455.165,566.839 459.671,590.689 458.471,598.668C457.575,604.634 455.42,611.589 450.994,617.36C444.321,626.061 444.402,639.64 442.869,631.856C440.795,621.327 442.677,595.855 443.927,588.572C445.54,579.177 446.463,573.231 451.516,569.519Z" style="stroke:black;stroke-width:2px;"/>
        </g>
        <g transform="matrix(1,0,0,0.897679,50.2089,59.5272)">
            <path d="M792.334,546.477C781.786,557.954 769.478,586.54 785.667,634.407C787.87,640.921 788.302,641.374 795.284,642.173C796.751,642.341 798.544,642.541 799.677,641.593C801.382,640.165 801.228,637.197 802.933,635.769C804.988,638.826 812.965,666.132 820.732,635.65C828.736,604.243 821.329,587.897 820.112,582.398C818.566,575.412 816.298,548.803 811.947,550.245C810.656,550.673 804.188,558.75 801.211,560.204C798.208,561.67 799.256,559.011 795.621,543.708C795.621,543.708 793.256,545.475 792.334,546.477Z" style="stroke:black;stroke-width:2.1px;"/>
        </g>
        <g transform="matrix(-1,0,0,0.897679,1721.86,59.5272)">
            <path d="M792.334,546.477C781.786,557.954 769.478,586.54 785.667,634.407C787.87,640.921 788.302,641.374 795.284,642.173C796.751,642.341 798.544,642.541 799.677,641.593C801.382,640.165 801.228,637.197 802.933,635.769C804.988,638.826 812.965,666.132 820.732,635.65C828.736,604.243 821.329,587.897 820.112,582.398C818.566,575.412 816.298,548.803 811.947,550.245C810.656,550.673 804.188,558.75 801.211,560.204C798.208,561.67 799.256,559.011 795.621,543.708C795.621,543.708 793.256,545.475 792.334,546.477Z" style="stroke:black;stroke-width:2.1px;"/>
        </g>
    </g>
</svg>
