<?xml version="1.0" encoding="UTF-8" standalone="no"?>
<!DOCTYPE svg PUBLIC "-//W3C//DTD SVG 1.1//EN" "http://www.w3.org/Graphics/SVG/1.1/DTD/svg11.dtd">
<svg width="100%" height="100%" viewBox="0 0 70 70" version="1.1" xmlns="http://www.w3.org/2000/svg" xmlns:xlink="http://www.w3.org/1999/xlink" xml:space="preserve" xmlns:serif="http://www.serif.com/" style="fill-rule:evenodd;clip-rule:evenodd;stroke-linecap:round;stroke-linejoin:round;stroke-miterlimit:3.57558;">
    <g transform="matrix(1.2647,-0.246306,0.246306,1.2647,-30.068,-9.42522)">
        <g id="Layer9">
            <path d="M45.81,26.241L46.5,29.972C48.157,30.426 49.715,31.198 51.092,32.248L54.356,30.477C55.76,31.775 56.944,33.303 57.86,35.001L55.457,37.882C56.145,39.499 56.53,41.234 56.591,42.997L59.971,44.52C59.861,46.459 59.438,48.365 58.721,50.161L55.033,50.023C54.235,51.585 53.157,52.976 51.856,54.125L52.806,57.795C51.265,58.915 49.554,59.763 47.743,60.305L45.548,57.252C43.865,57.583 42.135,57.583 40.452,57.252L38.257,60.305C36.446,59.763 34.735,58.915 33.194,57.795L34.144,54.125C32.843,52.976 31.765,51.585 30.967,50.023L27.279,50.161C26.562,48.365 26.139,46.459 26.029,44.52L29.409,42.997C29.47,41.234 29.855,39.499 30.543,37.882L28.14,35.001C29.056,33.303 30.24,31.775 31.644,30.477L34.908,32.248C36.285,31.198 37.843,30.426 39.5,29.972L40.19,26.241C42.05,25.92 43.95,25.92 45.81,26.241ZM43,37.375C46.284,37.375 48.95,40.12 48.95,43.5C48.95,46.88 46.284,49.625 43,49.625C39.716,49.625 37.05,46.88 37.05,43.5C37.05,40.12 39.716,37.375 43,37.375Z" style="fill:none;stroke-width:4.66px;"/>
        </g>
    </g>
    <g id="Layer10">
    </g>
</svg>
