<?xml version="1.0" encoding="UTF-8" standalone="no"?>
<!DOCTYPE svg PUBLIC "-//W3C//DTD SVG 1.1//EN" "http://www.w3.org/Graphics/SVG/1.1/DTD/svg11.dtd">
<svg width="100%" height="100%" viewBox="0 0 70 70" version="1.1" xmlns="http://www.w3.org/2000/svg" xmlns:xlink="http://www.w3.org/1999/xlink" xml:space="preserve" xmlns:serif="http://www.serif.com/" style="fill-rule:evenodd;clip-rule:evenodd;stroke-linecap:round;stroke-linejoin:round;stroke-miterlimit:3.57558;">
    <g transform="matrix(1.09756,0,0,1.09756,-3.41463,-3.41463)">
        <g id="Layer8">
            <path d="M45.933,26.8L46.844,13.959L54.398,13.959L55.044,26.8M45.933,26.8L41.23,27.711L50.489,37.733L59.907,27.711L55.044,26.8M23.272,33.458C22.056,32.381 21.289,30.804 21.289,29.05C21.289,25.805 23.911,23.172 27.142,23.172C30.372,23.172 32.995,25.805 32.995,29.05C32.995,30.804 32.228,32.381 31.012,33.458M31.173,33.825L36.288,33.825L41.313,55.5L12.971,55.5L17.996,33.825L23.111,33.825M23.111,33.825L31.173,33.825" style="fill:none;stroke-width:5.47px;"/>
        </g>
    </g>
    <g id="Layer10">
    </g>
</svg>
