<?xml version="1.0" encoding="UTF-8" standalone="no"?>
<!DOCTYPE svg PUBLIC "-//W3C//DTD SVG 1.1//EN" "http://www.w3.org/Graphics/SVG/1.1/DTD/svg11.dtd">
<svg width="100%" height="100%" viewBox="0 0 70 70" version="1.1" xmlns="http://www.w3.org/2000/svg" xmlns:xlink="http://www.w3.org/1999/xlink" xml:space="preserve" xmlns:serif="http://www.serif.com/" style="fill-rule:evenodd;clip-rule:evenodd;stroke-linecap:round;stroke-linejoin:round;stroke-miterlimit:2.87791;">
    <g id="Layer3" transform="matrix(1.32299,0,0,1.32299,-11.3048,-10.7524)">
        <path d="M25.119,40.883C24.091,39.161 23.5,37.149 23.5,35C23.5,33.089 23.967,31.287 24.793,29.701C26.71,26.018 30.563,23.5 35,23.5C41.347,23.5 46.5,28.653 46.5,35C46.5,37.149 45.909,39.161 44.881,40.883M16.716,40.883L25.119,40.883M25.119,40.883L44.881,40.883M44.881,40.883L53.284,40.883M21.5,45.92L48.5,45.92M26,51.211L44,51.211M35,23.276L35,16.165M42.415,25.582L46.285,20.97M27.292,25.582L23.422,20.97M46.285,32.779L52.424,31.696M23.422,32.727L17.576,31.696" style="fill:none;stroke:black;stroke-width:3.02px;"/>
    </g>
</svg>
